<svg width="67" height="75" viewBox="0 0 67 75" fill="none" xmlns="http://www.w3.org/2000/svg">
<path d="M21.9706 26.1029C23.4765 23.2794 27.5235 23.2794 29.0294 26.1029L44.4464 55.0094C45.8674 57.6738 43.9366 60.8917 40.9169 60.8917H10.0831C7.06337 60.8917 5.13261 57.6738 6.55365 55.0094L21.9706 26.1029Z" fill="#BCE154"/>
<path d="M42.834 35.0888L67 32.4756L42.834 29.8591L58.214 9.51102L39.416 26.1612L37 0L34.583 26.1612L15.786 9.51102L31.166 29.8591L7 32.4756L31.166 35.0888L15.786 55.4391L34.583 38.791L37 64.9512L39.416 38.791L58.214 55.4391L42.834 35.0888Z" fill="black"/>
</svg>
