<svg width="47" height="47" viewBox="0 0 47 47" fill="none" xmlns="http://www.w3.org/2000/svg">
<g clip-path="url(#clip0_1_92)">
<path d="M8.03589 22C9.57549 19.3333 13.4245 19.3333 14.9641 22L30.1195 48.25C31.6591 50.9167 29.7346 54.25 26.6554 54.25H-3.65543C-6.73464 54.25 -8.65915 50.9167 -7.11955 48.25L8.03589 22Z" fill="#BCE154"/>
<path d="M14.4427 32.8628L16.8906 29.8039L9.01028 23.5L16.8906 17.1961L14.4427 14.1372L4.65103 21.9705C4.42161 22.154 4.23639 22.3867 4.10911 22.6515C3.98183 22.9162 3.91574 23.2062 3.91574 23.5C3.91574 23.7937 3.98183 24.0837 4.10911 24.3485C4.23639 24.6132 4.42161 24.846 4.65103 25.0294L14.4427 32.8628ZM32.5573 14.1372L30.1094 17.1961L37.9897 23.5L30.1094 29.8039L32.5573 32.8628L42.3489 25.0294C42.5784 24.846 42.7636 24.6132 42.8909 24.3485C43.0182 24.0837 43.0842 23.7937 43.0842 23.5C43.0842 23.2062 43.0182 22.9162 42.8909 22.6515C42.7636 22.3867 42.5784 22.154 42.3489 21.9705L32.5573 14.1372ZM29.328 6.29798L21.4947 41.548L17.67 40.6981L25.5034 5.44806L29.328 6.29798Z" fill="black"/>
</g>
<defs>
<clipPath id="clip0_1_92">
<rect width="47" height="47" fill="white"/>
</clipPath>
</defs>
</svg>
