<svg width="139" height="58" viewBox="0 0 139 58" fill="none" xmlns="http://www.w3.org/2000/svg">
<path d="M16.656 15.472C18.8 15.472 20.752 15.744 22.512 16.288C24.272 16.8 25.712 17.568 26.832 18.592C28.848 20.416 30.256 22.416 31.056 24.592C31.888 26.736 32.304 29.488 32.304 32.848C32.304 33.552 32.208 34.192 32.016 34.768C31.856 35.344 31.584 36.08 31.2 36.976C30.72 37.968 30.432 38.752 30.336 39.328C29.696 40.448 28.64 41.52 27.168 42.544C25.728 43.568 24.16 44.4 22.464 45.04C20.768 45.68 19.28 46 18 46C11.824 46 7.424 43.888 4.8 39.664C4.064 38.48 3.488 37.248 3.072 35.968C2.688 34.688 2.496 33.44 2.496 32.224C2.496 28.96 3.072 26.128 4.224 23.728C5.408 21.296 7.04 19.408 9.12 18.064C10.368 17.328 11.664 16.72 13.008 16.24C14.384 15.728 15.6 15.472 16.656 15.472ZM7.488 32.368C7.488 34.096 7.872 35.52 8.64 36.64C9.44 37.76 10.656 38.976 12.288 40.288C13.632 40.8 14.544 41.136 15.024 41.296C15.504 41.424 16.048 41.488 16.656 41.488C19.888 41.488 22.464 40.608 24.384 38.848C26.304 37.088 27.264 34.672 27.264 31.6C27.264 29.168 26.992 27.248 26.448 25.84C25.904 24.432 24.928 23.168 23.52 22.048C22.784 21.44 21.84 20.992 20.688 20.704C19.568 20.416 18.352 20.272 17.04 20.272C15.056 20.272 13.344 20.864 11.904 22.048C10.464 23.2 9.36 24.704 8.592 26.56C7.856 28.416 7.488 30.352 7.488 32.368Z" fill="white"/>
<path d="M44.4293 44.08C44.4293 44.624 44.2213 45.104 43.8053 45.52C43.3893 45.936 42.8773 46.144 42.2693 46.144C41.3093 46.144 40.6053 45.968 40.1573 45.616C39.7093 45.232 39.4853 44.544 39.4853 43.552C39.4853 42.368 39.4533 40.816 39.3893 38.896C39.3253 37.296 39.2933 35.952 39.2933 34.864C39.2933 34.352 39.3253 33.68 39.3893 32.848C39.4533 32.08 39.4853 31.504 39.4853 31.12C39.3893 30.512 39.1493 30.016 38.7653 29.632C38.3813 29.216 37.8853 29.008 37.2773 29.008C36.9893 29.008 36.7493 28.88 36.5573 28.624C36.3653 28.336 36.2693 28.048 36.2693 27.76C36.2693 27.024 36.5573 26.464 37.1333 26.08C37.7413 25.696 38.4613 25.504 39.2933 25.504C41.0213 25.504 42.2213 26.528 42.8933 28.576C43.7253 27.616 44.6693 26.848 45.7253 26.272C46.8133 25.664 47.8533 25.36 48.8453 25.36C50.0293 25.36 51.1013 25.68 52.0613 26.32C53.0533 26.96 53.5493 27.824 53.5493 28.912C53.5493 29.52 53.2773 30.144 52.7333 30.784C52.2213 31.424 51.6933 31.744 51.1493 31.744C50.8613 31.744 50.6053 31.68 50.3813 31.552C50.1893 31.392 49.9493 31.168 49.6613 30.88C49.3413 30.56 49.0693 30.336 48.8453 30.208C48.6213 30.048 48.3653 29.968 48.0773 29.968C47.5653 29.968 47.0853 30.048 46.6373 30.208C46.1893 30.368 45.8853 30.56 45.7253 30.784C45.2133 31.584 44.8293 32.304 44.5733 32.944C44.3493 33.584 44.2373 34.272 44.2373 35.008C44.2373 35.552 44.2213 35.984 44.1893 36.304L44.1413 39.04C44.1413 39.456 44.1573 39.92 44.1893 40.432C44.2213 40.944 44.2533 41.328 44.2853 41.584C44.3813 42.448 44.4293 43.28 44.4293 44.08ZM78.2434 43.696C78.2434 44.4 77.8594 44.992 77.0914 45.472C76.3554 45.952 75.6674 46.192 75.0274 46.192C73.8114 46.192 72.8354 46.048 72.0994 45.76C71.3954 45.44 70.7394 44.864 70.1314 44.032C69.2994 44.768 68.1634 45.328 66.7234 45.712C65.2834 46.064 63.9554 46.24 62.7394 46.24C60.7554 46.24 59.1234 45.712 57.8434 44.656C56.5634 43.568 55.9234 41.984 55.9234 39.904C55.9234 39.008 56.1634 38.192 56.6434 37.456C57.1234 36.688 57.7794 36.016 58.6114 35.44C59.5394 34.832 60.5954 34.368 61.7794 34.048C62.9634 33.696 64.1954 33.52 65.4754 33.52C66.1474 33.52 66.9474 33.648 67.8754 33.904C68.8034 34.16 69.5234 34.432 70.0354 34.72V33.952C70.0354 32.224 69.6194 31.04 68.7874 30.4C67.9554 29.728 66.6114 29.392 64.7554 29.392C64.2114 29.392 63.6674 29.504 63.1234 29.728C62.6114 29.952 62.0194 30.256 61.3474 30.64C60.4514 31.12 59.6034 31.36 58.8034 31.36C58.5154 31.36 58.2434 31.168 57.9874 30.784C57.7314 30.368 57.6034 30 57.6034 29.68C57.6034 28.752 58.0354 27.952 58.8994 27.28C59.7954 26.608 60.8514 26.112 62.0674 25.792C63.2834 25.44 64.3714 25.264 65.3314 25.264C66.2914 25.264 67.3954 25.456 68.6434 25.84C69.8914 26.192 70.9154 26.688 71.7154 27.328C72.6754 28.16 73.4114 29.136 73.9234 30.256C74.4674 31.344 74.7394 32.544 74.7394 33.856C74.7394 34.272 74.7074 34.896 74.6434 35.728C74.5794 36.624 74.5474 37.392 74.5474 38.032C74.5474 38.32 74.5154 38.752 74.4514 39.328C74.3874 40.032 74.3554 40.592 74.3554 41.008C74.3554 41.392 74.4994 41.728 74.7874 42.016C75.0754 42.272 75.4114 42.4 75.7954 42.4L77.1394 42.352C77.4914 42.352 77.7634 42.48 77.9554 42.736C78.1474 42.992 78.2434 43.312 78.2434 43.696ZM62.7874 42.448C64.1634 42.448 65.3154 42.304 66.2434 42.016C67.1714 41.728 68.2914 41.2 69.6034 40.432C69.7314 39.888 69.8114 39.168 69.8434 38.272C68.0834 37.44 66.6274 37.024 65.4754 37.024C64.1634 37.024 62.9954 37.264 61.9714 37.744C60.9474 38.224 60.4354 39.072 60.4354 40.288C60.4354 40.896 60.6914 41.408 61.2034 41.824C61.7154 42.24 62.2434 42.448 62.7874 42.448ZM96.3626 31.456C95.8826 31.456 95.4666 31.344 95.1146 31.12C94.7946 30.864 94.4586 30.528 94.1066 30.112C93.7546 29.696 93.3706 29.424 92.9546 29.296C92.5706 29.168 92.1226 29.104 91.6106 29.104C90.6826 29.104 89.7706 29.392 88.8746 29.968C88.0106 30.512 87.2906 31.28 86.7146 32.272C86.1706 33.264 85.8986 34.368 85.8986 35.584C85.8986 36.928 86.1546 38.048 86.6666 38.944C87.2106 39.84 88.0586 40.624 89.2106 41.296C89.6266 41.52 90.1066 41.696 90.6506 41.824C91.2266 41.952 91.7226 42.016 92.1386 42.016C93.1306 42.016 94.4106 41.584 95.9786 40.72C96.1066 40.656 96.3466 40.544 96.6986 40.384C97.0826 40.192 97.3706 40.096 97.5626 40.096C97.9146 40.096 98.3146 40.272 98.7626 40.624C99.2106 40.944 99.4346 41.344 99.4346 41.824C99.4346 42.784 99.0186 43.6 98.1866 44.272C97.3866 44.944 96.3786 45.44 95.1626 45.76C93.9466 46.08 92.7466 46.24 91.5626 46.24C89.6746 46.24 87.9146 45.808 86.2826 44.944C84.6506 44.08 83.3546 42.88 82.3946 41.344C81.4346 39.808 80.9546 38.08 80.9546 36.16C80.9546 34.08 81.4186 32.208 82.3466 30.544C83.2746 28.848 84.5226 27.52 86.0906 26.56C87.6906 25.568 89.4186 25.072 91.2746 25.072C93.0666 25.072 94.7146 25.424 96.2186 26.128C97.7546 26.832 98.5226 27.904 98.5226 29.344C98.5226 30.752 97.8026 31.456 96.3626 31.456ZM108.654 38.56C108.654 39.776 108.83 40.72 109.182 41.392C109.566 42.032 110.046 42.352 110.622 42.352C110.942 42.352 111.246 42.336 111.534 42.304C111.822 42.24 112.11 42.208 112.398 42.208C112.718 42.208 112.99 42.368 113.214 42.688C113.47 43.008 113.598 43.36 113.598 43.744C113.598 44.512 113.23 45.12 112.494 45.568C111.79 45.984 110.83 46.192 109.614 46.192C108.75 46.192 107.87 45.936 106.974 45.424C106.11 44.88 105.39 44.048 104.814 42.928C104.238 41.776 103.95 40.352 103.95 38.656C103.95 35.008 104.014 31.92 104.142 29.392C104.302 26.384 104.382 22.592 104.382 18.016C104.382 16.576 104.462 15.568 104.622 14.992C104.814 14.544 105.118 14.208 105.534 13.984C105.982 13.728 106.446 13.6 106.926 13.6C107.406 13.6 107.822 13.68 108.174 13.84C108.558 14 108.814 14.256 108.942 14.608C109.07 14.992 109.15 15.376 109.182 15.76C109.246 16.112 109.278 16.624 109.278 17.296C109.278 18.608 109.23 19.872 109.134 21.088C109.07 22.56 109.038 23.632 109.038 24.304C108.782 29.936 108.654 34.688 108.654 38.56ZM116.392 35.008C116.392 33.056 116.824 31.44 117.688 30.16C118.552 28.848 119.752 27.616 121.288 26.464C121.736 26.144 122.488 25.872 123.544 25.648C124.6 25.392 125.528 25.264 126.328 25.264C127.288 25.264 128.296 25.472 129.352 25.888C130.44 26.272 131.32 26.72 131.992 27.232C133.176 28.096 133.992 29.104 134.44 30.256C134.888 31.376 135.112 32.72 135.112 34.288C135.112 34.96 134.728 35.616 133.96 36.256C133.224 36.864 132.424 37.168 131.56 37.168L129.736 37.12C128.808 37.12 127.48 37.152 125.752 37.216L124.744 37.264C124.04 37.328 123.512 37.36 123.16 37.36C122.648 37.36 121.944 37.296 121.048 37.168C121.176 38.672 121.736 39.856 122.728 40.72C123.72 41.552 124.792 41.968 125.944 41.968C127.96 41.968 129.368 41.568 130.168 40.768C130.84 40.288 131.288 39.984 131.512 39.856C131.736 39.728 132.088 39.664 132.568 39.664C133.08 39.664 133.528 39.904 133.912 40.384C134.296 40.864 134.488 41.344 134.488 41.824C134.488 42.368 134.152 42.928 133.48 43.504C132.84 44.048 131.96 44.624 130.84 45.232C130.232 45.488 129.4 45.712 128.344 45.904C127.288 46.096 126.408 46.192 125.704 46.192C124.584 46.192 123.336 45.872 121.96 45.232C120.584 44.56 119.56 43.824 118.888 43.024C118.216 42.224 117.624 41.088 117.112 39.616C116.632 38.144 116.392 36.608 116.392 35.008ZM125.944 33.712C128.216 33.712 129.88 33.632 130.936 33.472C130.872 32.544 130.584 31.792 130.072 31.216C129.56 30.608 128.856 30.096 127.96 29.68C127.672 29.552 127.416 29.456 127.192 29.392C126.968 29.328 126.712 29.296 126.424 29.296C124.952 29.296 123.704 29.696 122.68 30.496C121.688 31.296 121.096 32.32 120.904 33.568C122.504 33.664 124.184 33.712 125.944 33.712Z" fill="black"/>
<path d="M2 55H138.5" stroke="black" stroke-width="2"/>
</svg>
