<svg width="51" height="56" viewBox="0 0 51 56" fill="none" xmlns="http://www.w3.org/2000/svg">
<path d="M21.9706 7.09509C23.4765 4.27158 27.5235 4.27159 29.0294 7.0951L44.4464 36.0015C45.8674 38.666 43.9366 41.8839 40.9169 41.8839H10.0831C7.06337 41.8839 5.13261 38.666 6.55365 36.0015L21.9706 7.09509Z" fill="#BCE154"/>
<path d="M43.3828 22.3729C46.1879 22.3729 48.4627 20.1071 48.4627 17.311C48.4627 14.5156 46.1879 12.249 43.3828 12.249C40.5755 12.249 38.3003 14.5159 38.3003 17.311C38.2999 20.1071 40.5755 22.3729 43.3828 22.3729Z" fill="black"/>
<path d="M31.9366 23.3104C34.4622 23.3104 36.5096 21.2706 36.5096 18.7543C36.5096 16.238 34.4622 14.1981 31.9366 14.1981C29.4109 14.1981 27.3635 16.238 27.3635 18.7543C27.3635 21.2706 29.4109 23.3104 31.9366 23.3104Z" fill="black"/>
<path d="M21.557 24.1542C23.8297 24.1542 25.6729 22.3196 25.6729 20.0552C25.6729 17.7901 23.8297 15.9548 21.557 15.9548C19.2836 15.9548 17.4412 17.7901 17.4412 20.0552C17.4412 22.32 19.2833 24.1542 21.557 24.1542ZM21.557 25.0906C18.947 25.0906 17.0336 27.3812 17.0336 29.7475V31.3405C17.0336 31.5659 17.218 31.7509 17.4448 31.7509H25.6682C25.8958 31.7509 26.0801 31.5659 26.0801 31.3405V29.7475C26.0801 27.3812 24.1667 25.0906 21.557 25.0906ZM31.9366 24.3493C29.0368 24.3493 26.9102 26.8949 26.9102 29.5247V31.2948C26.9102 31.545 27.1151 31.7509 27.3671 31.7509H36.5046C36.6257 31.751 36.742 31.703 36.8277 31.6175C36.9135 31.532 36.9619 31.4159 36.9622 31.2948V29.5247C36.9625 26.8952 34.8364 24.3493 31.9366 24.3493ZM43.382 23.5274C40.16 23.5274 37.7977 26.3556 37.7977 29.2781V31.2444C37.7977 31.5227 38.0252 31.7509 38.3053 31.7509H48.4573C48.7388 31.7509 48.9664 31.5223 48.9664 31.2444V29.2781C48.9664 26.356 46.604 23.5274 43.382 23.5274Z" fill="black"/>
</svg>
