<svg width="188" height="43" viewBox="0 0 188 43" fill="none" xmlns="http://www.w3.org/2000/svg">
<circle cx="21.5" cy="21.5" r="21.5" fill="#E6E3D4"/>
<circle cx="68.5" cy="21.5" r="21.5" fill="#E6E3D4"/>
<ellipse cx="117.5" cy="21.5" rx="20.5" ry="21.5" fill="#E6E3D4"/>
<path fill-rule="evenodd" clip-rule="evenodd" d="M54 21.5754C54 28.2871 59.0552 33.8682 65.6667 35V25.2496H62.1667V21.5H65.6667V18.4996C65.6667 15.1246 67.9218 13.2504 71.1115 13.2504C72.1218 13.2504 73.2115 13.4 74.2218 13.5496V17H72.4333C70.7218 17 70.3333 17.8246 70.3333 18.8754V21.5H74.0667L73.4448 25.2496H70.3333V35C76.9448 33.8682 82 28.2883 82 21.5754C82 14.1088 75.7 8 68 8C60.3 8 54 14.1088 54 21.5754Z" fill="black"/>
<path d="M131.714 18.7809C131.899 19.7516 132 20.7665 132 21.8255C132 30.1096 126.342 36 117.797 36C115.854 36.0006 113.929 35.6259 112.134 34.8974C110.338 34.1689 108.707 33.1009 107.333 31.7543C105.958 30.4078 104.869 28.8091 104.125 27.0496C103.382 25.2901 102.999 23.4043 103 21.5C102.999 19.5957 103.382 17.7099 104.125 15.9504C104.869 14.1909 105.958 12.5922 107.333 11.2457C108.707 9.89909 110.338 8.83105 112.134 8.10256C113.929 7.37408 115.854 6.99942 117.797 7C121.792 7 125.131 8.44057 127.692 10.7797L123.521 14.8672V14.8569C121.968 13.4075 119.997 12.6636 117.797 12.6636C112.915 12.6636 108.946 16.7055 108.946 21.4912C108.946 26.2754 112.915 30.3261 117.797 30.3261C122.227 30.3261 125.242 27.8441 125.861 24.4356H117.797V18.7809H131.716H131.714Z" fill="black"/>
<circle cx="166.5" cy="21.5" r="21.5" fill="#E6E3D4"/>
<path d="M22 8C14.2688 8 8 14.0449 8 21.5C8 28.9551 14.2688 35 22 35C29.7312 35 36 28.9551 36 21.5C36 14.0449 29.7312 8 22 8ZM28.7281 18.1762C28.7375 18.3179 28.7375 18.4655 28.7375 18.6102C28.7375 23.0338 25.2438 28.1295 18.8594 28.1295C16.8906 28.1295 15.0656 27.578 13.5281 26.6288C13.8094 26.6589 14.0781 26.671 14.3656 26.671C15.9906 26.671 17.4844 26.1406 18.675 25.2426C17.15 25.2125 15.8687 24.2482 15.4312 22.9223C15.9656 22.9977 16.4469 22.9977 16.9969 22.8621C16.2116 22.7082 15.5059 22.297 14.9994 21.6982C14.493 21.0995 14.2171 20.3501 14.2188 19.5775V19.5353C14.6781 19.7854 15.2188 19.9391 15.7844 19.9602C15.3089 19.6546 14.9189 19.2406 14.6491 18.7549C14.3793 18.2692 14.2379 17.7268 14.2375 17.1758C14.2375 16.552 14.4063 15.9825 14.7094 15.4883C15.5809 16.5229 16.6685 17.3691 17.9015 17.9718C19.1344 18.5746 20.485 18.9204 21.8656 18.9868C21.375 16.7117 23.1375 14.8705 25.2563 14.8705C26.2563 14.8705 27.1562 15.2743 27.7906 15.9252C28.575 15.7836 29.325 15.5003 29.9937 15.1206C29.7344 15.8951 29.1906 16.549 28.4688 16.9618C29.1687 16.8895 29.8438 16.7027 30.4688 16.4405C29.9969 17.1095 29.4062 17.7031 28.7281 18.1762V18.1762Z" fill="black"/>
<path fill-rule="evenodd" clip-rule="evenodd" d="M160.934 8.081C162.374 8.01473 162.833 8 166.5 8C170.167 8 170.626 8.01595 172.064 8.081C173.503 8.14605 174.485 8.37555 175.344 8.70814C176.243 9.04809 177.059 9.5795 177.734 10.2668C178.422 10.9405 178.952 11.7555 179.291 12.6563C179.624 13.5154 179.853 14.4972 179.919 15.9331C179.985 17.3751 180 17.8341 180 21.5C180 25.1671 179.984 25.6261 179.919 27.0657C179.854 28.5016 179.624 29.4834 179.291 30.3425C178.952 31.2434 178.421 32.0597 177.734 32.7345C177.059 33.4217 176.243 33.9519 175.344 34.2906C174.485 34.6245 173.503 34.8527 172.067 34.919C170.626 34.9853 170.167 35 166.5 35C162.833 35 162.374 34.984 160.934 34.919C159.498 34.854 158.517 34.6245 157.658 34.2906C156.757 33.9519 155.94 33.4208 155.266 32.7345C154.579 32.0603 154.047 31.2444 153.708 30.3437C153.376 29.4846 153.147 28.5028 153.081 27.0669C153.015 25.6249 153 25.1659 153 21.5C153 17.8329 153.016 17.3739 153.081 15.9355C153.146 14.4972 153.376 13.5154 153.708 12.6563C154.048 11.7556 154.58 10.9397 155.267 10.2655C155.941 9.57889 156.756 9.04741 157.656 8.70814C158.515 8.37555 159.497 8.14727 160.933 8.081H160.934ZM171.955 10.511C170.532 10.446 170.105 10.4325 166.5 10.4325C162.896 10.4325 162.468 10.446 161.045 10.511C159.728 10.5711 159.014 10.7908 158.537 10.9761C157.908 11.2216 157.457 11.5125 156.985 11.985C156.537 12.4207 156.192 12.9512 155.976 13.5375C155.791 14.0136 155.571 14.7279 155.511 16.0448C155.446 17.4684 155.432 17.8955 155.432 21.5C155.432 25.1045 155.446 25.5316 155.511 26.9552C155.571 28.2721 155.791 28.9864 155.976 29.4625C156.192 30.048 156.537 30.5794 156.985 31.015C157.421 31.463 157.952 31.8079 158.537 32.0239C159.014 32.2092 159.728 32.4289 161.045 32.489C162.468 32.554 162.894 32.5675 166.5 32.5675C170.106 32.5675 170.532 32.554 171.955 32.489C173.272 32.4289 173.986 32.2092 174.463 32.0239C175.092 31.7784 175.543 31.4875 176.015 31.015C176.463 30.5794 176.808 30.048 177.024 29.4625C177.209 28.9864 177.429 28.2721 177.489 26.9552C177.554 25.5316 177.568 25.1045 177.568 21.5C177.568 17.8955 177.554 17.4684 177.489 16.0448C177.429 14.7279 177.209 14.0136 177.024 13.5375C176.778 12.9079 176.488 12.4575 176.015 11.985C175.579 11.5371 175.049 11.1924 174.463 10.9761C173.986 10.7908 173.272 10.5711 171.955 10.511V10.511ZM164.776 25.6617C165.739 26.0625 166.811 26.1167 167.809 25.8147C168.808 25.5128 169.671 24.8737 170.25 24.0064C170.83 23.1391 171.09 22.0975 170.987 21.0595C170.884 20.0216 170.424 19.0516 169.685 18.3152C169.214 17.8445 168.644 17.4841 168.017 17.26C167.39 17.0358 166.721 16.9534 166.059 17.0188C165.396 17.0841 164.756 17.2956 164.185 17.6379C163.614 17.9803 163.126 18.445 162.756 18.9986C162.386 19.5523 162.143 20.181 162.046 20.8397C161.948 21.4983 161.997 22.1705 162.19 22.8077C162.384 23.4449 162.716 24.0314 163.163 24.5249C163.61 25.0184 164.161 25.4066 164.776 25.6617ZM161.593 16.5934C162.238 15.949 163.003 15.4379 163.845 15.0892C164.686 14.7405 165.589 14.561 166.5 14.561C167.411 14.561 168.314 14.7405 169.155 15.0892C169.997 15.4379 170.762 15.949 171.407 16.5934C172.051 17.2377 172.562 18.0027 172.911 18.8445C173.26 19.6864 173.439 20.5888 173.439 21.5C173.439 22.4112 173.26 23.3136 172.911 24.1555C172.562 24.9973 172.051 25.7623 171.407 26.4066C170.105 27.708 168.34 28.439 166.5 28.439C164.66 28.439 162.895 27.708 161.593 26.4066C160.292 25.1053 159.561 23.3403 159.561 21.5C159.561 19.6597 160.292 17.8947 161.593 16.5934V16.5934ZM174.978 15.5944C175.138 15.4437 175.266 15.2626 175.354 15.0617C175.442 14.8608 175.49 14.6442 175.493 14.4247C175.496 14.2052 175.455 13.9873 175.373 13.7839C175.29 13.5805 175.168 13.3957 175.012 13.2405C174.857 13.0853 174.672 12.9628 174.469 12.8803C174.266 12.7978 174.048 12.7569 173.828 12.7601C173.609 12.7633 173.392 12.8105 173.191 12.8989C172.99 12.9873 172.809 13.1151 172.658 13.2748C172.366 13.5854 172.205 13.9978 172.211 14.4247C172.218 14.8515 172.39 15.2592 172.692 15.561C172.994 15.8629 173.401 16.0352 173.828 16.0415C174.255 16.0477 174.667 15.8873 174.978 15.5944V15.5944Z" fill="black"/>
</svg>
