<svg width="121" height="121" viewBox="0 0 121 121" fill="none" xmlns="http://www.w3.org/2000/svg">
<circle cx="60.5" cy="60.5" r="60.5" fill="url(#paint0_radial_1_24)"/>
<g clip-path="url(#clip0_1_24)">
<path d="M94 67.0828L85.5133 58.8055L92.794 49.459L81.3091 46.5249L82.9394 34.7888L71.5271 37.9768L67.0604 27L58.7831 35.4867L49.4366 28.206L46.5026 39.6909L34.7664 38.0606L37.9545 49.4701L26.9777 53.9256L35.4643 62.2057L28.1837 71.5522L39.6686 74.4863L38.0215 86.2224L49.431 83.0343L53.8977 94.0112L62.175 85.5245L71.5215 92.8052L74.4555 81.3203L86.1945 82.9673L83.0064 71.5578L94 67.0828ZM66.8678 79.0925C63.1947 80.3419 59.234 80.4761 55.4847 79.4783C51.7354 78.4805 48.3653 76.3953 45.7991 73.4855C43.2329 70.5757 41.5853 66.9714 41.064 63.1268C40.5427 59.2823 41.1709 55.3694 42.8696 51.8812C44.5683 48.3931 47.2613 45.4858 50.6095 43.5256C53.9577 41.5654 57.8111 40.64 61.6843 40.8661C65.5575 41.0922 69.2771 42.4596 72.3745 44.796C75.4718 47.1324 77.8084 50.3333 79.0897 53.9954L79.1316 54.1322C79.8016 56.0278 80.1868 58.2108 80.1868 60.486C80.1869 64.5653 78.918 68.5435 76.5561 71.8693C74.1941 75.1952 70.8561 77.7039 67.0046 79.0478L66.8678 79.0897V79.0925Z" fill="#BCE154"/>
</g>
<defs>
<radialGradient id="paint0_radial_1_24" cx="0" cy="0" r="1" gradientUnits="userSpaceOnUse" gradientTransform="translate(60.5 60.5) rotate(148.707) scale(59.6825)">
<stop stop-color="white"/>
<stop offset="1" stop-color="#C4C4C4" stop-opacity="0"/>
</radialGradient>
<clipPath id="clip0_1_24">
<rect width="67" height="67" fill="white" transform="translate(27 27)"/>
</clipPath>
</defs>
</svg>
