<svg width="70" height="62" viewBox="0 0 70 62" fill="none" xmlns="http://www.w3.org/2000/svg">
<path d="M21.9706 12.6176C23.4765 9.79405 27.5235 9.79405 29.0294 12.6176L44.4464 41.524C45.8674 44.1884 43.9366 47.4064 40.9169 47.4064H10.0831C7.06337 47.4064 5.13261 44.1884 6.55365 41.524L21.9706 12.6176Z" fill="#BCE154"/>
<path fill-rule="evenodd" clip-rule="evenodd" d="M36 8H30V14H36V8ZM30 6C29.4696 6 28.9609 6.21071 28.5858 6.58579C28.2107 6.96086 28 7.46957 28 8V14C28 14.5304 28.2107 15.0391 28.5858 15.4142C28.9609 15.7893 29.4696 16 30 16H36C36.5304 16 37.0391 15.7893 37.4142 15.4142C37.7893 15.0391 38 14.5304 38 14V8C38 7.46957 37.7893 6.96086 37.4142 6.58579C37.0391 6.21071 36.5304 6 36 6H30ZM36 21H30V27H36V21ZM30 19C29.4696 19 28.9609 19.2107 28.5858 19.5858C28.2107 19.9609 28 20.4696 28 21V27C28 27.5304 28.2107 28.0391 28.5858 28.4142C28.9609 28.7893 29.4696 29 30 29H36C36.5304 29 37.0391 28.7893 37.4142 28.4142C37.7893 28.0391 38 27.5304 38 27V21C38 20.4696 37.7893 19.9609 37.4142 19.5858C37.0391 19.2107 36.5304 19 36 19H30ZM36 34H30V40H36V34ZM30 32C29.4696 32 28.9609 32.2107 28.5858 32.5858C28.2107 32.9609 28 33.4696 28 34V40C28 40.5304 28.2107 41.0391 28.5858 41.4142C28.9609 41.7893 29.4696 42 30 42H36C36.5304 42 37.0391 41.7893 37.4142 41.4142C37.7893 41.0391 38 40.5304 38 40V34C38 33.4696 37.7893 32.9609 37.4142 32.5858C37.0391 32.2107 36.5304 32 36 32H30ZM49 8H43V14H49V8ZM43 6C42.4696 6 41.9609 6.21071 41.5858 6.58579C41.2107 6.96086 41 7.46957 41 8V14C41 14.5304 41.2107 15.0391 41.5858 15.4142C41.9609 15.7893 42.4696 16 43 16H49C49.5304 16 50.0391 15.7893 50.4142 15.4142C50.7893 15.0391 51 14.5304 51 14V8C51 7.46957 50.7893 6.96086 50.4142 6.58579C50.0391 6.21071 49.5304 6 49 6H43ZM49 21H43V27H49V21ZM43 19C42.4696 19 41.9609 19.2107 41.5858 19.5858C41.2107 19.9609 41 20.4696 41 21V27C41 27.5304 41.2107 28.0391 41.5858 28.4142C41.9609 28.7893 42.4696 29 43 29H49C49.5304 29 50.0391 28.7893 50.4142 28.4142C50.7893 28.0391 51 27.5304 51 27V21C51 20.4696 50.7893 19.9609 50.4142 19.5858C50.0391 19.2107 49.5304 19 49 19H43ZM49 34H43V40H49V34ZM43 32C42.4696 32 41.9609 32.2107 41.5858 32.5858C41.2107 32.9609 41 33.4696 41 34V40C41 40.5304 41.2107 41.0391 41.5858 41.4142C41.9609 41.7893 42.4696 42 43 42H49C49.5304 42 50.0391 41.7893 50.4142 41.4142C50.7893 41.0391 51 40.5304 51 40V34C51 33.4696 50.7893 32.9609 50.4142 32.5858C50.0391 32.2107 49.5304 32 49 32H43ZM62 8H56V14H62V8ZM56 6C55.4696 6 54.9609 6.21071 54.5858 6.58579C54.2107 6.96086 54 7.46957 54 8V14C54 14.5304 54.2107 15.0391 54.5858 15.4142C54.9609 15.7893 55.4696 16 56 16H62C62.5304 16 63.0391 15.7893 63.4142 15.4142C63.7893 15.0391 64 14.5304 64 14V8C64 7.46957 63.7893 6.96086 63.4142 6.58579C63.0391 6.21071 62.5304 6 62 6H56ZM62 21H56V27H62V21ZM56 19C55.4696 19 54.9609 19.2107 54.5858 19.5858C54.2107 19.9609 54 20.4696 54 21V27C54 27.5304 54.2107 28.0391 54.5858 28.4142C54.9609 28.7893 55.4696 29 56 29H62C62.5304 29 63.0391 28.7893 63.4142 28.4142C63.7893 28.0391 64 27.5304 64 27V21C64 20.4696 63.7893 19.9609 63.4142 19.5858C63.0391 19.2107 62.5304 19 62 19H56ZM62 34H56V40H62V34ZM56 32C55.4696 32 54.9609 32.2107 54.5858 32.5858C54.2107 32.9609 54 33.4696 54 34V40C54 40.5304 54.2107 41.0391 54.5858 41.4142C54.9609 41.7893 55.4696 42 56 42H62C62.5304 42 63.0391 41.7893 63.4142 41.4142C63.7893 41.0391 64 40.5304 64 40V34C64 33.4696 63.7893 32.9609 63.4142 32.5858C63.0391 32.2107 62.5304 32 62 32H56Z" fill="black"/>
</svg>
